<svg width="58" height="58" viewBox="0 0 58 58" fill="none" xmlns="http://www.w3.org/2000/svg">
<g clip-path="url(#clip0_1059_13015)">
<path d="M30.3288 34.7744C27.9604 37.8678 25.1329 40.3569 21.9188 42.1453C8.24042 34.4844 5.63042 16.6253 5.12292 10.4386C12.4213 9.78609 19.2121 6.54776 21.9188 5.09776C23.6104 5.99193 26.8729 7.58693 30.8604 8.81943L32.2863 4.20359C27.6463 2.77776 24.0213 0.74776 23.3446 0.361094C22.4504 -0.146406 21.3871 -0.146406 20.4929 0.361094C18.9704 1.23109 11.0196 5.55693 2.99625 5.70193C2.22292 5.70193 1.49792 6.04026 0.966252 6.62026C0.434585 7.17609 0.168752 7.92526 0.192918 8.67443C0.337918 13.3869 1.95709 37.3844 20.5896 46.9061C21.0246 47.1236 21.4838 47.2444 21.9429 47.2444C22.4021 47.2444 22.8613 47.1478 23.2721 46.9303C27.5013 44.7794 31.1504 41.6619 34.1713 37.7228L30.3288 34.7986V34.7744Z" fill="white"/>
<path d="M50.2191 35.5499L56.9375 28.8316C57.59 28.1791 57.9041 27.2607 57.7833 26.3182C57.6625 25.3999 57.1308 24.5782 56.3333 24.0949L46.0866 20.0832V18.9716C50.2433 17.8841 53.3366 14.1382 53.3366 9.64323C53.3366 4.3024 49.0108 -0.0234375 43.67 -0.0234375C38.3291 -0.0234375 34.0033 4.3024 34.0033 9.64323C34.0033 14.1382 37.0966 17.8841 41.2533 18.9716V20.0832L31.3691 23.9257L31.0066 24.1191C30.2091 24.6024 29.6775 25.3999 29.5566 26.3424C29.4358 27.2607 29.75 28.1791 30.4266 28.8557L37.1208 35.5499L40.5283 32.1424L35.7916 27.4057L41.2291 25.3032V33.4716L34.1 54.8591L38.6916 56.3816L43.6458 41.5191L48.6 56.3816L53.1916 54.8591L46.0625 33.4957V25.3274L51.5 27.4299L46.7633 32.1666L50.1708 35.5741L50.2191 35.5499ZM38.8366 9.6674C38.8366 7.00906 41.0116 4.83406 43.67 4.83406C46.3283 4.83406 48.5033 7.00906 48.5033 9.6674C48.5033 12.3257 46.3283 14.5007 43.67 14.5007C41.0116 14.5007 38.8366 12.3257 38.8366 9.6674Z" fill="white"/>
</g>
<defs>
<clipPath id="clip0_1059_13015">
<rect width="58" height="58" fill="white"/>
</clipPath>
</defs>
</svg>
