<svg width="58" height="58" viewBox="0 0 58 58" fill="none" xmlns="http://www.w3.org/2000/svg">
<g clip-path="url(#clip0_1061_13218)">
<path d="M29 7.25V12.0833C38.3283 12.0833 45.9167 19.6717 45.9167 29H50.75C50.75 17.0133 40.9867 7.25 29 7.25Z" fill="white"/>
<path d="M29 0C13.0017 0 0 13.0017 0 29C0 44.9983 13.0017 58 29 58C44.9983 58 58 44.9983 58 29C58 13.0017 44.9983 0 29 0ZM29 53.1667C15.6842 53.1667 4.83333 42.3158 4.83333 29C4.83333 15.6842 15.6842 4.83333 29 4.83333C42.3158 4.83333 53.1667 15.6842 53.1667 29C53.1667 42.3158 42.3158 53.1667 29 53.1667Z" fill="white"/>
<path d="M29.0026 19.332C23.6618 19.332 19.3359 23.6579 19.3359 28.9987C19.3359 34.3395 23.6618 38.6654 29.0026 38.6654C34.3434 38.6654 38.6693 34.3395 38.6693 28.9987C38.6693 23.6579 34.3434 19.332 29.0026 19.332ZM29.0026 33.832C26.3443 33.832 24.1693 31.657 24.1693 28.9987C24.1693 26.3404 26.3443 24.1654 29.0026 24.1654C31.6609 24.1654 33.8359 26.3404 33.8359 28.9987C33.8359 31.657 31.6609 33.832 29.0026 33.832Z" fill="white"/>
</g>
<defs>
<clipPath id="clip0_1061_13218">
<rect width="58" height="58" fill="white"/>
</clipPath>
</defs>
</svg>
