<svg width="58" height="58" viewBox="0 0 58 58" fill="none" xmlns="http://www.w3.org/2000/svg">
<path d="M49.0832 6.33297C48.0682 5.68047 46.7632 5.5838 45.6516 6.06714C44.4432 6.5988 42.2682 7.2513 38.6432 7.2513C35.4774 7.2513 32.7466 6.1638 29.8707 5.0038C26.6807 3.72297 23.3941 2.41797 19.3099 2.41797C13.4616 2.41797 10.2716 3.9163 8.89406 4.7863C8.02406 5.34214 7.46823 6.2363 7.29906 7.2513H7.22656V55.5846H12.0599V37.508C12.0599 37.508 12.2291 37.4596 12.3016 37.4355C13.5099 36.9038 15.6849 36.2513 19.3099 36.2513C22.4757 36.2513 25.2066 37.3388 28.0824 38.4988C31.2724 39.7796 34.5591 41.0846 38.6432 41.0846C44.4916 41.0846 47.6816 39.5863 49.0591 38.7163C50.0982 38.0396 50.7266 36.9038 50.7266 35.6713V9.37797C50.7266 8.14547 50.0982 6.98547 49.0591 6.33297H49.0832ZM45.9174 25.2796C44.8782 25.8113 42.6549 26.5846 38.6674 26.5846C35.8157 26.5846 33.9066 25.7146 31.4657 24.6271C31.4657 24.6271 31.4174 24.6271 31.4174 24.603V20.2046C33.4716 21.0505 35.7191 21.7513 38.6674 21.7513C41.8332 21.7513 44.1774 21.3163 45.9174 20.7846V25.2796ZM45.9174 11.118V15.613C44.8782 16.1446 42.6549 16.918 38.6674 16.918C35.8157 16.918 33.9066 16.0721 31.4899 14.9846C31.4899 14.9846 31.4416 14.9846 31.4174 14.9605V10.7555C33.6166 11.5046 35.9607 12.1088 38.6674 12.1088C41.8574 12.1088 44.2257 11.6738 45.9174 11.1421V11.118ZM19.3341 7.2513C21.9441 7.2513 24.2399 8.00047 26.5841 8.89464V22.7421C24.6024 22.1621 22.2824 21.7513 19.3341 21.7513C16.1682 21.7513 13.8241 22.1863 12.0841 22.718V8.5563C13.1716 8.02464 15.3949 7.2513 19.3341 7.2513ZM38.6674 36.2513C35.5016 36.2513 32.7707 35.1638 29.8949 34.0038C26.7049 32.723 23.4182 31.418 19.3341 31.418C16.1441 31.418 13.7757 31.853 12.0841 32.3846V27.8896C13.1232 27.358 15.3466 26.5846 19.3341 26.5846C23.9982 26.5846 26.6807 27.793 29.5082 29.0496C32.1182 30.2096 34.8007 31.418 38.6674 31.418C41.8332 31.418 44.1774 30.983 45.9174 30.4513V34.9463C44.8299 35.478 42.6066 36.2513 38.6674 36.2513Z" fill="white"/>
</svg>
