<svg width="58" height="58" viewBox="0 0 58 58" fill="none" xmlns="http://www.w3.org/2000/svg">
<path d="M12.2526 21.75H5.0026C3.67344 21.75 2.58594 22.8375 2.58594 24.1667V45.9167C2.58594 47.2458 3.67344 48.3333 5.0026 48.3333H12.2526C13.5818 48.3333 14.6693 47.2458 14.6693 45.9167V24.1667C14.6693 22.8375 13.5818 21.75 12.2526 21.75ZM9.83594 43.5H7.41927V26.5833H9.83594V43.5Z" fill="white"/>
<path d="M53.8193 21.315C52.6834 20.0583 51.0401 19.3333 49.3484 19.3333H39.1501L40.6726 7.1775C40.8901 5.365 40.3343 3.52833 39.1259 2.15083C37.9176 0.773333 36.1776 0 34.3409 0C31.6826 0 29.2901 1.6675 28.3476 4.1325L23.4901 17.11C22.7893 18.9708 21.4359 20.4933 19.6476 21.3633L18.4151 21.9675C17.5934 22.3783 17.0859 23.2242 17.0859 24.1183V45.8683C17.0859 47.1008 18.0043 48.14 19.2368 48.2608L40.4551 50.6775C40.4551 50.6775 40.6484 50.6775 40.7209 50.6775C44.9984 50.6775 48.7201 47.9225 49.9768 43.8383L55.2934 26.3658C55.3418 26.2208 55.3659 26.0517 55.3901 25.8825C55.5351 24.1908 54.9793 22.4992 53.8193 21.2425V21.315ZM45.3368 42.5092C44.7326 44.515 42.9201 45.8683 40.8418 45.9408L21.9193 43.79V25.6892C24.7468 24.2392 26.8976 21.8225 28.0093 18.85L32.8909 5.84833C33.1084 5.24417 33.7126 4.83333 34.3409 4.83333C34.9451 4.83333 35.3318 5.17167 35.5009 5.365C35.6701 5.55833 35.9601 5.96917 35.8876 6.57333L34.0268 21.4358C33.9301 22.1125 34.1476 22.8133 34.6068 23.345C35.0659 23.8525 35.7184 24.1667 36.4193 24.1667H49.3484C49.8318 24.1667 50.1218 24.4083 50.2668 24.5775C50.3876 24.6983 50.5568 24.9642 50.5809 25.3267L45.3609 42.5092H45.3368Z" fill="white"/>
</svg>
