<svg xmlns="http://www.w3.org/2000/svg" xmlns:xlink="http://www.w3.org/1999/xlink" width="186.411" height="42.013" viewBox="0 0 186.411 42.013">
  <defs>
    <clipPath id="clip-path">
      <rect id="사각형_3" data-name="사각형 3" width="186.411" height="42.013" fill="#c99"/>
    </clipPath>
  </defs>
  <g id="그룹_14" data-name="그룹 14" transform="translate(-128 121.196)">
    <g id="그룹_10" data-name="그룹 10" transform="translate(128 -121.196)">
      <g id="그룹_5" data-name="그룹 5" transform="translate(0 0)" clip-path="url(#clip-path)">
        <path id="패스_3" data-name="패스 3" d="M0,26.3l3.627-2.221.143.235c-1.18.787-1.416,1.106-.706,1.664l5.158,4.051L6.656,22.226l.252-.155,6.4,4.846-1.16-5.14c-.465-2.025-.483-2.23-2.1-1.306l-.143-.235L13.061,18.3l.145.235c-1.107.765-1.114.964-.693,2.887l1.559,7.055-.206.124L7.426,23.869l1.511,7.754-.2.124-6.6-5.066c-.769-.586-.97-.7-1.989-.143Z" transform="translate(0 8.463)" fill="#c99"/>
        <path id="패스_4" data-name="패스 4" d="M19.293,21.577l.363.02a4.234,4.234,0,0,1-2.261,3.7,4.648,4.648,0,0,1-6.322-2.221,4.527,4.527,0,0,1,1.818-6.384A3.674,3.674,0,0,1,18.063,18.2L11.821,21.39c.085.2.177.426.276.623,1.275,2.489,3.5,3.562,5.43,2.575a3.4,3.4,0,0,0,1.765-3.011m-7.59-.54,4.259-2.178a.663.663,0,0,0,.328-1.015,2.285,2.285,0,0,0-3.264-.81c-1.606.822-1.837,2.428-1.322,4" transform="translate(4.832 7.485)" fill="#c99"/>
        <path id="패스_5" data-name="패스 5" d="M16.172,11.759l1.606,4.993-.218.1-2.711-4.488Z" transform="translate(6.866 5.437)" fill="#c99"/>
        <path id="패스_6" data-name="패스 6" d="M24.347,11.93l.38,1.116a9.75,9.75,0,0,0-.971.3,2.764,2.764,0,0,0-1.885,2.624l2.387,5.8,1.5-.6.133.323-4.1,1.686-.133-.325,1.49-.632-2.77-6.736c-.351-.851-.61-.8-1.882-.32l-.111-.272,2.435-1.479.845,2.059a3.718,3.718,0,0,1,2.194-3.369,4.484,4.484,0,0,1,.484-.178" transform="translate(8.504 5.516)" fill="#c99"/>
        <path id="패스_7" data-name="패스 7" d="M32.851,16.335l.355.07a4.24,4.24,0,0,1-2.748,3.356,4.652,4.652,0,0,1-5.964-3.068,4.532,4.532,0,0,1,2.676-6.079,3.677,3.677,0,0,1,4.921,2.2l-6.623,2.309c.056.215.117.446.189.655.923,2.643,2.979,4.011,5.029,3.3a3.4,3.4,0,0,0,2.164-2.742M25.4,14.76l4.519-1.575a.664.664,0,0,0,.465-.961,2.287,2.287,0,0,0-3.125-1.25c-1.705.594-2.156,2.154-1.859,3.786" transform="translate(11.176 4.785)" fill="#c99"/>
        <path id="패스_8" data-name="패스 8" d="M40.381,8.606A3.617,3.617,0,0,1,39,15.072a4.582,4.582,0,0,1-1.259.114c-1.205.668-1.566,1.285-1.411,1.929.2.825,1.174.949,2.858.468l1.173-.32c2.059-.57,4.13-.538,4.643,1.591.537,2.238-1.638,4.218-3.981,4.782-2.2.529-4.026-.2-4.387-1.708a1.061,1.061,0,0,1,.914-1.4c.354,2.264,1.835,2.986,3.786,2.517,1.9-.456,3.245-1.86,2.853-3.488-.366-1.521-2-1.546-3.66-1.128l-1.141.294c-2.355.6-3.564-.015-3.83-1.123-.208-.86.341-1.73,1.692-2.491a3.443,3.443,0,0,1-2.7-2.644,3.541,3.541,0,0,1,2.771-4.379,3.857,3.857,0,0,1,2.765.319c.175-1.082.553-1.873,1.3-2.055a.852.852,0,0,1,1.1.567.832.832,0,0,1-.288.847,1.151,1.151,0,0,0-.981-.219c-.483.117-.73.421-.844,1.056m.143,2.407C40.086,9.188,38.859,8.1,37.408,8.45c-1.467.352-2.065,1.879-1.626,3.7s1.667,2.913,3.134,2.561c1.449-.35,2.049-1.875,1.609-3.7" transform="translate(15.927 2.923)" fill="#c99"/>
        <path id="패스_9" data-name="패스 9" d="M49.756,12.564l.341.127a4.238,4.238,0,0,1-3.257,2.865,4.651,4.651,0,0,1-5.385-3.994A4.533,4.533,0,0,1,45.082,6a3.675,3.675,0,0,1,4.5,2.972l-6.907,1.2c.019.221.042.461.08.677.48,2.757,2.287,4.441,4.427,4.068a3.4,3.4,0,0,0,2.578-2.355M42.662,9.8l4.713-.822a.664.664,0,0,0,.614-.873,2.287,2.287,0,0,0-2.881-1.739c-1.777.309-2.473,1.775-2.447,3.434" transform="translate(19.128 2.739)" fill="#c99"/>
        <path id="패스_10" data-name="패스 10" d="M47.938,6.94l1.847-2.685.2,1.645,3.965-.472-.253.828-3.62.43.725,6.085c.156,1.316.964,1.868,1.859,1.761a1.63,1.63,0,0,0,1.379-1.016l.256.118a2.426,2.426,0,0,1-2.065,1.487,2.211,2.211,0,0,1-2.58-2.047L48.9,6.824Z" transform="translate(22.168 1.967)" fill="#c99"/>
        <path id="패스_11" data-name="패스 11" d="M52.925,6.35l1.964-2.6L55.012,5.4l3.981-.292-.291.815-3.631.268.452,6.109c.1,1.321.88,1.908,1.778,1.84a1.628,1.628,0,0,0,1.423-.954l.25.132a2.421,2.421,0,0,1-2.129,1.391,2.206,2.206,0,0,1-2.483-2.159L53.9,6.279Z" transform="translate(24.474 1.733)" fill="#c99"/>
        <path id="패스_12" data-name="패스 12" d="M62.52,15.5l.012.348L58.1,16l-.012-.35,1.617-.075-.25-7.283c-.032-.918-.291-.965-1.653-.955l-.01-.294,2.8-.538.31,9.029ZM58.835.952A.92.92,0,1,1,60.673.889a.92.92,0,1,1-1.838.063" transform="translate(26.725 0)" fill="#c99"/>
        <path id="패스_13" data-name="패스 13" d="M71.991,13.584l-.006.351-4.433-.08.006-.35,1.619.01.1-5.313a5,5,0,0,0-.306-2.417,1.564,1.564,0,0,0-1.439-.8c-1.012-.019-1.85.518-2.928,2.154l-.111,6.29,1.617.047-.006.35-4.433-.078.006-.35,1.619.01.13-7.284c.018-.917-.24-.977-1.6-1.038l.006-.294L64.65,4.4l-.038,2.134c.943-1.382,1.878-2.194,3.4-2.166a2.378,2.378,0,0,1,1.935.825c.36.5.553,1.022.524,2.641l-.1,5.7Z" transform="translate(28.517 2.02)" fill="#c99"/>
        <path id="패스_14" data-name="패스 14" d="M77.058,6.3a3.543,3.543,0,0,1,.66,2.439,3.547,3.547,0,0,1-4.011,3.26,4.515,4.515,0,0,1-1.231-.29c-1.353.254-1.891.725-1.946,1.385-.072.844.815,1.272,2.564,1.347l1.214.067c2.134.108,4.089.793,3.9,2.975-.2,2.293-2.884,3.486-5.287,3.282-2.257-.193-3.756-1.467-3.624-3.008a1.062,1.062,0,0,1,1.309-1.034c-.379,2.259.8,3.413,2.8,3.584,1.945.167,3.666-.74,3.808-2.41.135-1.559-1.41-2.1-3.116-2.224l-1.176-.082c-2.425-.171-3.377-1.139-3.279-2.276.075-.88.869-1.534,2.393-1.828A3.449,3.449,0,0,1,70.3,8.119a3.541,3.541,0,0,1,4.013-3.277,3.851,3.851,0,0,1,2.524,1.176c.509-.973,1.116-1.6,1.887-1.538a.852.852,0,0,1,.866.886.831.831,0,0,1-.54.712,1.146,1.146,0,0,0-.863-.516c-.494-.044-.826.168-1.133.734m-.624,2.33c.161-1.87-.661-3.289-2.147-3.418-1.5-.129-2.553,1.132-2.714,3s.661,3.289,2.166,3.418c1.486.127,2.534-1.132,2.7-3" transform="translate(32.041 2.069)" fill="#c99"/>
        <path id="패스_15" data-name="패스 15" d="M95.406,17.639l-.072.342-4.34-.9.07-.342,1.588.312,1.082-5.206A5.073,5.073,0,0,0,93.9,9.415,1.514,1.514,0,0,0,92.67,8.371c-.936-.2-1.862.195-3.187,1.591a5.592,5.592,0,0,1-.1.581l-1.161,5.585,1.582.348-.073.342-4.34-.9.07-.342,1.591.312,1.081-5.206A5.053,5.053,0,0,0,88.3,8.251,1.517,1.517,0,0,0,87.068,7.2c-.937-.195-1.841.181-3.168,1.579l-1.283,6.179,1.581.348-.07.342-4.342-.9.072-.342,1.588.312L82.93,7.587c.187-.9-.054-1.008-1.379-1.321l.06-.288,2.844.14-.418,2.017C85.175,7,86.276,6.4,87.718,6.7a2.27,2.27,0,0,1,1.619,1.163,2.581,2.581,0,0,1,.231,1.514c1.166-1.185,2.293-1.815,3.753-1.512A2.354,2.354,0,0,1,94.939,9.03c.266.524.374,1.092.044,2.676l-1.16,5.585Z" transform="translate(36.896 2.764)" fill="#c99"/>
        <path id="패스_16" data-name="패스 16" d="M96.466,13.571l1.547.1L98.36,12.5c.464-1.552.279-2.606-1.044-3a3.63,3.63,0,0,0-3.154.845.706.706,0,0,1-.51-.863c.1-.317.351-.529.877-.622a6.675,6.675,0,0,1,2.916.273c2.063.616,2.688,1.743,2.227,3.22L98.141,17.3c-.265.823-.146,1.264.756,1.455l-.382.636c-1.4-.149-1.712-.954-1.634-1.736a6.023,6.023,0,0,1-3.7.355,2.178,2.178,0,0,1-1.761-2.6c.437-1.464,2.406-2.009,5.044-1.838m-2.581,4.014a5.306,5.306,0,0,0,3.055-.319l.956-3.21-1.132-.069c-1.96-.124-3.57.183-4.017,1.682a1.472,1.472,0,0,0,1.138,1.916" transform="translate(42.241 4.067)" fill="#c99"/>
        <path id="패스_17" data-name="패스 17" d="M106.639,12.388l-.468,1.084c-.4-.2-.731-.361-.921-.431a2.769,2.769,0,0,0-3.162.68l-2.129,5.9,1.518.567-.118.329-4.174-1.506.12-.328,1.528.532,2.474-6.856c.313-.867.088-1.006-1.18-1.5l.1-.278,2.8.54-.756,2.1A3.72,3.72,0,0,1,106.16,12.2a4.286,4.286,0,0,1,.478.192" transform="translate(44.941 4.893)" fill="#c99"/>
        <path id="패스_18" data-name="패스 18" d="M111.912,14.637l-.522,1.057c-.388-.222-.712-.4-.9-.477a2.759,2.759,0,0,0-3.188.519l-2.425,5.782,1.484.643-.135.323-4.087-1.715.135-.322,1.5.608,2.817-6.717c.355-.848.139-1-1.1-1.559l.113-.271,2.765.68-.858,2.053a3.714,3.714,0,0,1,3.935-.823,4.95,4.95,0,0,1,.467.216" transform="translate(47.233 5.785)" fill="#c99"/>
        <path id="패스_19" data-name="패스 19" d="M111.184,26.1l-.149.317-4.014-1.884.149-.317,1.473.671,3.095-6.6c.39-.832.18-.992-1.035-1.6l.124-.266,2.736.8L109.724,25.4Zm3.345-14.629a.921.921,0,1,1,.443,1.224.914.914,0,0,1-.443-1.224" transform="translate(49.489 5.059)" fill="#c99"/>
        <path id="패스_20" data-name="패스 20" d="M118.062,25.77l.19.31a4.243,4.243,0,0,1-4.33.265,4.652,4.652,0,0,1-1.8-6.46,4.531,4.531,0,0,1,6.278-2.169,3.676,3.676,0,0,1,1.729,5.107l-6.2-3.289c-.118.186-.249.389-.351.584-1.312,2.473-.92,4.911,1,5.93a3.4,3.4,0,0,0,3.481-.278m-3.908-6.536,4.226,2.245a.666.666,0,0,0,1.022-.313,2.288,2.288,0,0,0-1.209-3.143c-1.593-.845-3.043-.116-4.039,1.211" transform="translate(51.562 7.938)" fill="#c99"/>
        <path id="패스_21" data-name="패스 21" d="M125.333,33.279l-.158.249-2.621-1.117,1.209-1.935a3.915,3.915,0,0,1-4.317.1c-2.012-1.259-2.523-3.88-1.071-6.205,1.5-2.4,4.3-3.235,6.471-1.879a3.549,3.549,0,0,1,1.765,3.426l3.5-5.6c.488-.781.3-.964-.837-1.717l.157-.25,2.621,1.119L124.5,31.562c-.488.781-.3.964.837,1.717m0-5.076c1.452-2.325.946-4.292-.553-5.228-1.81-1.132-3.846-.061-5.135,2-1.268,2.03-1.185,4.187.453,5.212,1.828,1.141,3.75.39,5.234-1.982" transform="translate(54.356 8.484)" fill="#c99"/>
      </g>
    </g>
  </g>
</svg>
