<?xml version="1.0" encoding="utf-8"?>
<!-- Generator: Adobe Illustrator 28.2.0, SVG Export Plug-In . SVG Version: 6.00 Build 0)  -->
<svg version="1.1" id="레이어_1" xmlns="http://www.w3.org/2000/svg" xmlns:xlink="http://www.w3.org/1999/xlink" x="0px"
	 y="0px" viewBox="0 0 365.9 65.9" style="enable-background:new 0 0 365.9 65.9;" xml:space="preserve">
<style type="text/css">
	.st0{fill:#D49A9C;}
</style>
<g id="그룹_19" transform="translate(-32.001 -90.844)">
	<path id="패스_31" class="st0" d="M74.1,140h-3l1.8-2.5H32v-1.1h7.1l31.6-44.5h-7.6v-1.1h19.8v1.1h-7.5l-31.6,44.5h29.9l9.1-12.8
		h0.9L74.1,140z"/>
	<path id="패스_32" class="st0" d="M86.4,132.2c0-2.1,0.9-4.5,2.7-7.2c1.8-2.8,4-5.3,6.5-7.5c2.5-2.3,5.4-4.2,8.4-5.8
		c2.4-1.4,5.1-2.2,7.9-2.4c1.1-0.1,2.1,0.2,3,0.8c0.7,0.5,1.1,1.3,1.1,2.1c-0.1,1.2-0.6,2.4-1.4,3.4c-1.1,1.4-2.3,2.6-3.8,3.6
		c-1.7,1.2-3.5,2.3-5.3,3.2c-2,1-4.1,1.7-6.3,2.2c-2.1,0.5-4.3,0.7-6.4,0.6c-1.3,2.1-2,4.5-2.1,6.9c0,3.1,1.7,4.7,5,4.7
		c3,0,6.4-1.4,10.3-4.2l0.7,0.9c-4.6,3.2-8.7,4.7-12.3,4.7c-2.1,0.1-4.1-0.4-5.8-1.5C87.1,135.6,86.3,133.9,86.4,132.2 M93.5,124.1
		c2,0,3.9-0.2,5.8-0.7c1.8-0.5,3.6-1.2,5.3-2.1c1.5-0.8,2.9-1.8,4.2-2.9c1.1-0.9,2.1-2,2.9-3.2c0.6-0.8,1-1.8,1-2.9
		c0-1.2-0.7-1.8-2.1-1.8c-2.1,0.2-4.2,0.9-5.9,2.1c-2.4,1.5-4.5,3.2-6.4,5.2C96.4,119.7,94.8,121.8,93.5,124.1"/>
	<path id="패스_33" class="st0" d="M114.5,132.2c0-2.1,0.9-4.5,2.7-7.2c1.8-2.8,4-5.3,6.5-7.5c2.5-2.3,5.4-4.2,8.4-5.8
		c2.4-1.4,5.1-2.2,7.9-2.4c1.1-0.1,2.1,0.2,3,0.8c0.7,0.5,1.1,1.3,1.1,2.1c-0.1,1.2-0.6,2.4-1.4,3.4c-1.1,1.4-2.3,2.6-3.8,3.6
		c-1.7,1.2-3.5,2.3-5.3,3.2c-2,1-4.1,1.7-6.3,2.2c-2.1,0.5-4.3,0.7-6.4,0.6c-1.3,2.1-2,4.5-2.1,6.9c0,3.1,1.7,4.7,5,4.7
		c3,0,6.4-1.4,10.3-4.2l0.7,0.9c-4.6,3.2-8.7,4.7-12.3,4.7c-2.1,0.1-4.1-0.4-5.8-1.5C115.3,135.6,114.5,133.9,114.5,132.2
		 M121.6,124.1c2,0,3.9-0.2,5.8-0.7c1.8-0.5,3.6-1.2,5.3-2.1c1.5-0.8,2.9-1.8,4.2-2.9c1.1-0.9,2.1-2,2.9-3.2c0.6-0.8,1-1.8,1-2.9
		c0-1.2-0.7-1.8-2.1-1.8c-2.1,0.2-4.2,0.9-5.9,2.1c-2.4,1.5-4.5,3.2-6.4,5.2C124.6,119.7,123,121.8,121.6,124.1"/>
	<path id="패스_34" class="st0" d="M156.7,122.3c0.3,4.6,1.6,8.2,4,10.8c2.4,2.6,5.9,3.9,10.4,3.9c3,0,5.9-0.7,8.6-2.2
		c2.6-1.4,4.7-3.5,6.2-6c1.5-2.6,2.3-5.6,2.3-8.6c-0.1-2.4-0.4-4.9-0.8-7.3c-0.5-2.4-0.7-4.9-0.8-7.3c0-2,0.3-4,0.9-6
		c1-3.1,3.3-5.7,6.3-7c1.6-0.7,3.3-1.2,5-1.5c2-0.3,4-0.4,5.9-0.4h17.2v1.1h-17.2c-1.7,0-3.3,0.1-5,0.3c-1.3,0.2-2.6,0.5-3.9,1
		c-1.1,0.4-2.1,1.1-2.9,2c-0.8,0.9-1.4,2-1.7,3.2c-0.4,1.5-0.7,3.1-0.6,4.7c0.1,2.5,0.4,5,1,7.5c0.5,2.6,0.9,5.3,1,8
		c0,2.7-0.6,5.5-1.8,7.9c-1.1,2.4-2.7,4.5-4.7,6.2c-2,1.7-4.3,3.1-6.8,4c-2.6,1-5.3,1.4-8.1,1.4c-4.8,0-8.6-1.4-11.2-4.1
		c-2.7-2.8-4.2-6.7-4.4-11.7H156.7z"/>
	<path id="패스_35" class="st0" d="M200,132.2c0-2.1,0.9-4.5,2.7-7.2c1.8-2.8,4-5.3,6.5-7.5c2.5-2.3,5.4-4.2,8.4-5.8
		c2.4-1.4,5.1-2.2,7.9-2.4c1.1-0.1,2.1,0.2,3,0.8c0.7,0.5,1.1,1.3,1.1,2.1c-0.1,1.2-0.6,2.4-1.4,3.4c-1.1,1.4-2.3,2.6-3.8,3.6
		c-1.7,1.2-3.5,2.3-5.3,3.2c-2,1-4.1,1.7-6.3,2.2c-2.1,0.5-4.3,0.7-6.4,0.6c-1.3,2.1-2,4.5-2.1,6.9c0,3.1,1.7,4.7,5,4.7
		c3,0,6.4-1.4,10.3-4.2l0.7,0.9c-4.6,3.2-8.7,4.7-12.3,4.7c-2.1,0.1-4.1-0.4-5.8-1.5C200.8,135.6,200,133.9,200,132.2 M207.1,124.1
		c2,0,3.9-0.2,5.8-0.7c1.8-0.5,3.6-1.2,5.3-2.1c1.5-0.8,2.9-1.8,4.2-2.9c1.1-0.9,2.1-2,2.9-3.2c0.6-0.8,1-1.8,1-2.9
		c0-1.2-0.7-1.8-2.1-1.8c-2.1,0.2-4.2,0.9-5.9,2.1c-2.4,1.5-4.5,3.2-6.4,5.2C210.1,119.7,208.5,121.8,207.1,124.1"/>
	<path id="패스_36" class="st0" d="M235,136.5c2,0,4.5-1,7.3-2.9c3.1-2.2,6-4.6,8.6-7.3c2.8-2.9,5.5-6.1,7.9-9.4l5.1-6.9h4
		l-20.6,27.5h-4l6.6-8.3h-0.1c-1.5,1.4-2.9,2.5-4.1,3.5c-1.3,1-2.6,1.9-4,2.8c-1.3,0.8-2.7,1.5-4.2,2c-1.3,0.4-2.7,0.7-4.1,0.7
		c-1.4,0.1-2.7-0.3-3.9-1.1c-0.9-0.7-1.5-1.8-1.4-3c0-1.1,0.3-2.1,0.9-3c0.9-1.5,1.9-3,3-4.4l12.4-16.5h4.1l-13.9,18.5
		c-1.6,2.3-2.5,4-2.5,5.4c0,0.7,0.2,1.4,0.8,1.9C233.5,136.3,234.3,136.6,235,136.5"/>
	<path id="패스_37" class="st0" d="M295.6,110.8c-2.1,0-4.5,1-7.4,2.9c-3.1,2.1-6.1,4.6-8.7,7.3c-2.8,2.9-5.5,6.1-7.9,9.4
		l-5.3,7.1h-4.1l20.6-27.4h4.1l-6.4,8.1h0.1c2.7-2.5,5.6-4.7,8.8-6.6c2.4-1.5,5.1-2.3,7.9-2.4c1.4-0.1,2.7,0.3,3.9,1.1
		c0.9,0.7,1.5,1.8,1.4,3c0,1.1-0.3,2.1-0.9,3c-0.9,1.5-1.9,3-3,4.4L286,137.5h-4l14.1-18.8c1.6-2.2,2.5-4,2.5-5.4
		c0-0.7-0.2-1.4-0.8-1.9C297.2,111,296.4,110.8,295.6,110.8"/>
	<path id="패스_38" class="st0" d="M286,149.1c0.4-0.4,0.9-0.7,1.5-0.6c0.3,0,0.6,0.1,0.9,0.2c0.3,0.2,0.4,0.4,0.5,0.7
		c0.1,0.3,0.2,0.5,0.2,0.8c0,0.2,0.1,0.5,0.1,1c0,0.5,0.1,0.9,0.3,1.4c0.2,0.5,0.4,0.9,0.8,1.3c0.4,0.5,1,0.9,1.7,1.1
		c0.9,0.3,1.9,0.4,2.9,0.4c1.4,0,2.7-0.2,4-0.6c1.3-0.4,2.5-0.9,3.7-1.5c1.3-0.7,2.4-1.5,3.5-2.5c1.2-1,2.3-2,3.2-3
		c0.9-0.9,2-2.1,3.1-3.6c1.2-1.4,2.1-2.7,2.9-3.7c0.8-1,1.7-2.3,2.8-3.9l7-9.8h-0.1c-5.5,5.8-10.4,8.7-14.7,8.7
		c-1.5,0.1-2.9-0.4-4.1-1.2c-1.1-0.9-1.7-2.2-1.6-3.5c0.1-1.9,0.7-3.7,1.6-5.3c1.2-2.1,2.7-4,4.4-5.8c1.9-1.9,3.9-3.6,6-5.2
		c2.1-1.6,4.5-2.9,6.9-3.9c2.1-0.9,4.4-1.4,6.7-1.5c1.3,0,2.5,0.2,3.7,0.7c0.9,0.3,1.8,0.9,2.3,1.8l1.1-1.5h4l-19.2,26.7
		c-1.8,2.5-3.5,4.7-5.1,6.6c-1.6,1.9-3.3,3.7-5.2,5.4c-1.7,1.6-3.5,3-5.5,4.2c-1.8,1.1-3.7,2-5.8,2.6c-2,0.6-4.1,1-6.3,1
		c-2.3,0.1-4.7-0.5-6.6-1.8c-1.4-0.9-2.3-2.4-2.3-4C285.4,150.2,285.6,149.6,286,149.1 M311.6,134c2-0.2,4-0.9,5.6-2.1
		c2.7-1.8,5.3-3.9,7.5-6.3c1.6-1.6,3.1-3.2,4.4-4.8s2.2-2.7,2.6-3.2l2-2.8c-0.2-0.1-0.3-0.2-0.4-0.4c-0.1-0.1-0.2-0.3-0.2-0.5
		c0-0.1-0.1-0.4-0.1-0.6c-0.1-0.3-0.1-0.5-0.1-0.6c-0.4-1.4-1.6-2.1-3.7-2.1c-2,0-3.9,0.5-5.7,1.4c-2,0.9-3.9,2.1-5.6,3.6
		c-1.7,1.5-3.3,3.1-4.7,4.9c-1.3,1.7-2.4,3.5-3.3,5.4c-0.7,1.6-1.2,3.3-1.2,5C308.8,132.9,309.7,134,311.6,134"/>
	<path id="패스_39" class="st0" d="M339.7,137.5c-1.1,1.5-2.1,2.8-3,4c-0.9,1.1-2,2.4-3.2,3.8c-1.2,1.4-2.4,2.6-3.4,3.7
		c-1.1,1-2.2,2.1-3.5,3.1c-1.2,1-2.4,1.8-3.8,2.5c-1.2,0.7-2.5,1.2-3.8,1.6c-1.3,0.4-2.7,0.6-4,0.6c-1.4,0.1-2.8-0.2-4-1
		c-0.8-0.5-1.3-1.3-1.4-2.3c0-0.5,0.2-1.1,0.6-1.5c0.4-0.4,0.9-0.6,1.5-0.6c0.2,0,0.4,0,0.7,0.1c0.2,0.1,0.3,0.2,0.4,0.3
		c0.1,0.1,0.2,0.3,0.3,0.5c0.1,0.1,0.1,0.3,0.2,0.5c0,0.1,0.1,0.3,0.1,0.5s0.1,0.4,0.1,0.5c0.1,0.5,0.4,1,0.9,1.3
		c0.6,0.3,1.2,0.4,1.9,0.4c0.9,0,1.8-0.2,2.7-0.5c0.9-0.3,1.8-0.8,2.6-1.3c1-0.6,1.8-1.3,2.7-2.1c1-0.9,1.8-1.7,2.5-2.5
		c0.7-0.8,1.6-1.8,2.6-3c1-1.3,1.8-2.3,2.5-3.1c0.6-0.8,1.4-1.9,2.5-3.3c0.7-0.9,1.2-1.6,1.6-2.1l20.6-27.4h4L339.7,137.5z
		 M363.8,100.3c-1.1-1.1-1.1-2.8,0-3.9c0.5-0.5,1.2-0.8,2-0.8c0.7,0,1.4,0.3,2,0.8c1.1,1.1,1.1,2.8,0,3.9c-0.5,0.5-1.2,0.8-2,0.8
		C365,101.1,364.3,100.8,363.8,100.3"/>
	<path id="패스_40" class="st0" d="M364.9,136.5c2,0,4.5-1,7.3-2.9c3.1-2.2,6-4.6,8.6-7.3c2.8-2.9,5.5-6.1,7.9-9.4l5.1-6.9h4
		l-20.6,27.5h-4.1l6.6-8.3h-0.1c-1.5,1.4-2.9,2.5-4.1,3.5c-1.3,1-2.6,1.9-4,2.8c-1.3,0.8-2.7,1.5-4.2,2c-1.3,0.4-2.7,0.7-4.1,0.7
		c-1.4,0.1-2.7-0.3-3.9-1.1c-0.9-0.7-1.5-1.8-1.4-3c0-1.1,0.3-2.1,0.9-3c0.9-1.5,1.9-3,3-4.4l12.4-16.5h4.1l-13.9,18.5
		c-1.6,2.3-2.5,4-2.5,5.4c0,0.7,0.2,1.4,0.8,1.9C363.4,136.3,364.1,136.6,364.9,136.5"/>
</g>
</svg>
