<?xml version="1.0" encoding="utf-8"?>
<!-- Generator: Adobe Illustrator 28.2.0, SVG Export Plug-In . SVG Version: 6.00 Build 0)  -->
<svg version="1.1" id="레이어_1" xmlns="http://www.w3.org/2000/svg" xmlns:xlink="http://www.w3.org/1999/xlink" x="0px"
	 y="0px" viewBox="0 0 357.5 68.3" style="enable-background:new 0 0 357.5 68.3;" xml:space="preserve">
<style type="text/css">
	.st0{fill:#D49A9C;}
</style>
<g id="그룹_18" transform="translate(-36.222 -22.604)">
	<path id="패스_22" class="st0" d="M78.4,54.4c-0.7-2.6-1.7-4.4-3-5.4c-1.7-1-3.7-1.5-5.7-1.4h-4.8L48.5,70.5h7.8v1.1H36.2v-1.1
		h7.7l31.6-44.5h-7.8V25h20.1v1.1h-7.7L65.6,46.5h5.7l33.1-20.4h-8.7V25h20.1v1.1h-9.1L73.4,46.7c1.9,0.4,3.6,1.4,4.9,2.8
		c1.5,2,2.6,4.3,3.3,6.7l5.1,16.4c0.5,1.6,1,3.1,1.5,4.3c0.5,1.3,1.1,2.6,1.7,3.9c0.6,1.2,1.3,2.4,2.2,3.5c0.8,1,1.7,1.9,2.7,2.6
		c1,0.8,2.2,1.4,3.4,1.8c1.3,0.4,2.7,0.6,4.1,0.6c4.2,0,8.1-1.9,10.7-5.2c1.3-1.7,2.3-3.6,2.9-5.6c0.7-2.2,1.1-4.6,1-6.9v-1.1h1.3
		v1.1c0,2.6-0.4,5.1-1.2,7.6c-0.7,2.2-1.8,4.3-3.3,6.1c-1.5,1.8-3.4,3.2-5.5,4.1c-2.4,1-5,1.5-7.6,1.5c-4.5,0-8.1-1.3-10.8-3.9
		c-3-3-5-6.7-5.9-10.9L78.4,54.4z"/>
	<path id="패스_23" class="st0" d="M92.2,71.6l20.7-27.5h4L96.3,71.6H92.2z M118.9,36c-0.5-0.5-0.8-1.2-0.8-2
		c0-0.7,0.3-1.4,0.8-1.9c0.5-0.5,1.2-0.8,2-0.8c1.5,0,2.7,1.2,2.7,2.7c0,0,0,0,0,0.1c0,0.7-0.3,1.4-0.8,2c-0.5,0.5-1.2,0.8-1.9,0.8
		C120.1,36.8,119.4,36.5,118.9,36"/>
	<path id="패스_24" class="st0" d="M111,71.6l20.6-27.4h4.1l-6.4,8.1h0.1c2.7-2.5,5.6-4.7,8.8-6.6c2.4-1.5,5.1-2.3,7.9-2.4
		c1.4-0.1,2.7,0.3,3.9,1.1c0.9,0.7,1.5,1.8,1.4,3c-0.1,1.6-0.7,3.2-1.7,4.4h0.1c2.6-2.4,5.4-4.5,8.4-6.3c2.3-1.4,4.8-2.2,7.5-2.2
		c1.4-0.1,2.8,0.3,3.9,1.1c0.9,0.7,1.5,1.8,1.4,2.9c0,0.4,0,0.7-0.1,1.1c-0.1,0.4-0.2,0.8-0.4,1.2c-0.2,0.4-0.4,0.8-0.5,1.1
		c-0.2,0.4-0.5,0.8-0.7,1.2c-0.3,0.5-0.6,0.9-0.7,1.1c-0.1,0.2-0.4,0.6-0.9,1.2s-0.7,0.9-0.8,1.1l-12.4,16.4h-4l14-18.6
		c1.8-2.3,2.6-4.2,2.6-5.6c0-0.7-0.2-1.4-0.8-1.9c-0.6-0.5-1.4-0.7-2.2-0.6c-2.1,0-4.5,1-7.3,2.9c-3.1,2.2-6,4.6-8.6,7.3
		c-2.1,2.1-4.1,4.4-6,6.7l-7.6,9.8h-4.1l14.6-19c1.6-2.1,2.4-3.8,2.4-5.1c0-0.7-0.2-1.4-0.8-1.9c-0.6-0.5-1.4-0.7-2.2-0.6
		c-2.1,0-4.5,1-7.4,2.9c-3.1,2.1-6.1,4.6-8.7,7.3c-2.8,2.9-5.5,6.1-7.9,9.4l-5.3,7.1H111z"/>
	<path id="패스_25" class="st0" d="M182.5,70.5l31.6-44.5h-19.2l-9.1,12.8h-0.9l9.5-16.2h2.9l-1.7,2.4h42.2l1.4-2.4h3l-11.5,16.2
		h-0.9l7.4-12.8h-18.5l-31.6,44.5h7.8v1.1h-20.1v-1.1H182.5z"/>
	<path id="패스_26" class="st0" d="M214.1,67.6c0.1-1.6,0.5-3.1,1.3-4.5c1-1.9,2.1-3.6,3.4-5.3c1.5-1.9,3.2-3.7,5-5.3
		c1.9-1.7,3.9-3.3,6-4.7c2-1.3,4.2-2.5,6.5-3.3c2-0.8,4.1-1.2,6.3-1.3c2.9,0,4.9,0.8,6,2.5l1.2-1.6h4.1l-20.6,27.5h-4.1l6.4-8.1
		h-0.1c-6.3,5.8-11.6,8.7-15.9,8.7c-1.4,0.1-2.9-0.4-4-1.3C214.6,70.1,214,68.9,214.1,67.6 M218.4,67.6c0,0.8,0.2,1.6,0.6,2.2
		c0.5,0.6,1.3,0.9,2,0.8c2,0,4.8-1.3,8.5-3.9c3.9-2.8,7.4-6.1,10.5-9.8c1.3-1.5,3.4-4.2,6.2-8c-0.2-0.1-0.4-0.3-0.5-0.5
		c-0.1-0.3-0.2-0.6-0.3-0.9c-0.1-0.4-0.1-0.7-0.2-0.9c-0.4-1.4-1.7-2.1-3.7-2.1c-1.8,0-3.6,0.4-5.2,1.2c-1.9,0.8-3.7,1.9-5.3,3.1
		c-1.7,1.3-3.4,2.8-4.9,4.4c-1.5,1.6-2.8,3.2-4.1,5c-1.1,1.6-2,3.2-2.7,5C218.8,64.7,218.4,66.1,218.4,67.6"/>
	<path id="패스_27" class="st0" d="M251.2,66.3c0-2.1,0.9-4.5,2.7-7.2c1.8-2.8,4-5.3,6.5-7.5c2.5-2.3,5.4-4.2,8.4-5.8
		c2.4-1.4,5.1-2.2,7.9-2.4c1.1-0.1,2.1,0.2,3,0.8c0.7,0.5,1.1,1.3,1.1,2.1c-0.1,1.2-0.6,2.4-1.4,3.4c-1.1,1.4-2.3,2.6-3.8,3.6
		c-1.7,1.2-3.5,2.3-5.3,3.2c-2,1-4.1,1.7-6.3,2.2c-2.1,0.5-4.3,0.7-6.4,0.6c-1.3,2.1-2,4.5-2.1,6.9c0,3.1,1.7,4.7,5,4.7
		c3,0,6.4-1.4,10.3-4.2l0.7,0.9c-4.6,3.2-8.7,4.7-12.3,4.7c-2.1,0.1-4.1-0.4-5.8-1.5C252,69.7,251.2,68,251.2,66.3 M258.3,58.2
		c2,0,3.9-0.2,5.8-0.7c1.8-0.5,3.6-1.2,5.3-2.1c1.5-0.8,2.9-1.8,4.2-2.9c1.1-0.9,2.1-2,2.9-3.2c0.6-0.8,1-1.8,1-2.9
		c0-1.2-0.7-1.8-2.1-1.8c-2.1,0.1-4.2,0.9-5.9,2.1c-2.4,1.5-4.5,3.2-6.4,5.2C261.3,53.8,259.7,55.9,258.3,58.2"/>
	<path id="패스_28" class="st0" d="M280.8,72.1l9.5-27.9h3.9l-8,22.8l24.6-20.7l0.8-2.1h3.8l-8,22.8l27.1-22.8h2.1l-33.3,27.9H302
		l8-23.4l-0.1,0.1l-27.8,23.3H280.8z"/>
	<path id="패스_29" class="st0" d="M336,72.3c-1.7,0.1-3.4-0.3-4.8-1.3c-1.2-0.9-1.8-2.3-1.7-3.8c0.1-1.5,0.4-3,1.1-4.4
		c0.8-1.8,1.8-3.5,2.9-5.2c1.3-1.9,2.7-3.6,4.4-5.2c1.6-1.7,3.4-3.2,5.3-4.6c1.8-1.3,3.8-2.4,5.9-3.3c1.9-0.8,4-1.2,6-1.2
		c1.7-0.1,3.3,0.4,4.7,1.3c1.1,0.9,1.7,2.3,1.7,3.8c-0.1,1.9-0.6,3.7-1.5,5.3c-1.1,2.3-2.5,4.4-4.1,6.3c-1.7,2.1-3.7,4.1-5.8,6
		c-2.1,1.8-4.4,3.3-6.9,4.5C340.9,71.6,338.5,72.2,336,72.3 M333.8,67.5c-0.1,0.9,0.2,1.9,0.8,2.6c0.7,0.6,1.6,0.9,2.6,0.8
		c1.6,0,3.2-0.4,4.6-1.2c1.7-0.8,3.2-1.8,4.6-3.1c1.5-1.3,2.9-2.8,4.1-4.4c1.3-1.6,2.4-3.2,3.4-5c0.9-1.6,1.7-3.2,2.3-4.9
		c0.5-1.4,0.8-2.8,0.9-4.3c0.1-0.9-0.2-1.9-0.8-2.6c-0.7-0.6-1.6-0.9-2.6-0.8c-1.6,0-3.2,0.4-4.6,1.2c-1.7,0.8-3.2,1.8-4.6,3.1
		c-1.5,1.3-2.9,2.8-4.1,4.4c-1.3,1.6-2.4,3.2-3.4,5c-0.9,1.6-1.7,3.2-2.3,4.9C334.1,64.6,333.9,66,333.8,67.5"/>
	<path id="패스_30" class="st0" d="M368.3,72.3c-1.7,0.1-3.4-0.3-4.8-1.3c-1.2-0.9-1.8-2.3-1.7-3.8c0.1-1.5,0.4-3,1.1-4.4
		c0.8-1.8,1.8-3.5,2.9-5.2c1.3-1.9,2.7-3.6,4.4-5.2c1.6-1.7,3.4-3.2,5.3-4.6c1.8-1.3,3.8-2.4,5.9-3.3c1.9-0.8,4-1.2,6-1.2
		c1.7-0.1,3.3,0.4,4.7,1.3c1.1,0.9,1.7,2.3,1.7,3.8c-0.1,1.9-0.6,3.7-1.5,5.3c-1.1,2.3-2.5,4.4-4.1,6.3c-1.8,2.1-3.7,4.1-5.8,6
		c-2.1,1.8-4.4,3.3-6.9,4.5C373.2,71.6,370.8,72.2,368.3,72.3 M366.1,67.5c-0.1,0.9,0.2,1.9,0.8,2.6c0.7,0.6,1.6,0.9,2.6,0.8
		c1.6,0,3.2-0.4,4.6-1.2c1.7-0.8,3.2-1.8,4.6-3.1c1.5-1.3,2.9-2.8,4.1-4.4c1.3-1.6,2.4-3.2,3.4-5c0.9-1.6,1.7-3.2,2.3-4.9
		c0.5-1.4,0.8-2.8,0.9-4.3c0.1-0.9-0.2-1.9-0.9-2.6c-0.7-0.6-1.6-0.9-2.6-0.8c-1.6,0-3.2,0.4-4.6,1.2c-1.7,0.8-3.2,1.8-4.6,3.1
		c-1.5,1.3-2.9,2.8-4.1,4.4c-1.3,1.6-2.4,3.2-3.4,5c-0.9,1.6-1.7,3.2-2.3,4.9C366.4,64.6,366.1,66,366.1,67.5"/>
</g>
</svg>
